<?xml version="1.0" encoding="utf-8"?>
<!-- Generator: Adobe Illustrator 26.0.2, SVG Export Plug-In . SVG Version: 6.00 Build 0)  -->
<svg version="1.1" id="Layer_1" xmlns="http://www.w3.org/2000/svg" xmlns:xlink="http://www.w3.org/1999/xlink" x="0px" y="0px"
	 viewBox="0 0 300 150" style="enable-background:new 0 0 300 150;" xml:space="preserve">
<style type="text/css">
	.st0{fill-rule:evenodd;clip-rule:evenodd;fill:#FF9900;}
	.st1{fill-rule:evenodd;clip-rule:evenodd;}
</style>
<g>
	<path class="st0" d="M186.1,100.5c-17.4,12.8-42.6,19.7-64.4,19.7c-30.5,0-57.9-11.3-78.7-30c-1.6-1.5-0.2-3.5,1.8-2.3
		c22.4,13.1,50.1,20.8,78.7,20.8c19.3,0,40.5-4,60.1-12.3C186.5,95.2,188.9,98.4,186.1,100.5L186.1,100.5z"/>
	<path class="st0" d="M193.4,92.2c-2.2-2.8-14.7-1.4-20.3-0.6c-1.7,0.2-2-1.3-0.4-2.3c10-7.1,26.3-4.9,28.2-2.6
		c1.9,2.3-0.5,18.7-9.9,26.5c-1.5,1.2-2.8,0.5-2.2-1.1C190.8,106.8,195.6,95.1,193.4,92.2z"/>
	<path class="st1" d="M173.4,39.7v-6.8c0-1.1,0.7-1.7,1.7-1.7h30.5c0.9,0,1.8,0.7,1.8,1.7v5.8c0,0.9-0.8,2.2-2.3,4.3l-15.8,22.5
		c5.9-0.1,12.1,0.7,17.4,3.7c1.2,0.6,1.5,1.7,1.6,2.6v7.3c0,1.1-1.1,2.2-2.2,1.6c-9.4-4.9-21.9-5.5-32.2,0.1
		c-1.1,0.5-2.2-0.5-2.2-1.6v-6.9c0-1.1,0-2.9,1.2-4.6l18.3-26.2h-15.9C174.2,41.4,173.4,40.7,173.4,39.7L173.4,39.7z M62.1,82.2
		h-9.3c-0.8-0.1-1.6-0.7-1.7-1.6V33c0-0.9,0.8-1.7,1.8-1.7h8.6c0.9,0,1.6,0.7,1.7,1.6v6.2h0.2c2.2-6,6.5-8.8,12.2-8.8
		c5.8,0,9.5,2.8,12,8.8c2.2-6,7.4-8.8,12.8-8.8c3.9,0,8.1,1.6,10.7,5.3c2.9,4,2.3,9.8,2.3,14.9v30.1c0,0.9-0.8,1.7-1.8,1.7h-9.2
		c-0.9-0.1-1.7-0.8-1.7-1.7V55.3c0-2,0.2-7.1-0.2-8.9c-0.7-3.2-2.7-4.1-5.5-4.1c-2.2,0-4.6,1.5-5.6,3.9c-0.9,2.4-0.8,6.4-0.8,9.2
		v25.3c0,0.9-0.8,1.7-1.8,1.7h-9.3c-0.9-0.1-1.7-0.8-1.7-1.7V55.3c0-5.3,0.8-13.2-5.7-13.2c-6.6,0-6.4,7.6-6.4,13.2v25.3
		C63.9,81.4,63.2,82.2,62.1,82.2L62.1,82.2z M233.7,30.3c13.8,0,21.3,11.8,21.3,26.8c0,14.5-8.2,26.1-21.3,26.1
		c-13.5,0-20.8-11.8-20.8-26.5C212.7,41.8,220.2,30.3,233.7,30.3L233.7,30.3z M233.7,40.1c-6.8,0-7.3,9.4-7.3,15.2
		s-0.1,18.2,7.2,18.2c7.2,0,7.6-10,7.6-16.1c0-4-0.2-8.8-1.4-12.6C238.7,41.3,236.6,40.1,233.7,40.1L233.7,40.1z M272.7,82.2h-9.3
		c-0.9-0.1-1.7-0.8-1.7-1.7V32.8c0.1-0.8,0.8-1.6,1.8-1.6h8.6c0.8,0,1.5,0.6,1.7,1.4v7.3h0.2c2.6-6.5,6.2-9.6,12.6-9.6
		c4.1,0,8.2,1.5,10.8,5.6c2.4,3.8,2.4,10.2,2.4,14.8v30c-0.1,0.8-0.8,1.5-1.8,1.5h-9.3c-0.8-0.1-1.6-0.7-1.7-1.5V54.8
		c0-5.3,0.6-12.8-5.8-12.8c-2.2,0-4.3,1.5-5.4,3.8c-1.3,2.9-1.5,5.8-1.5,9.1v25.7C274.5,81.4,273.7,82.2,272.7,82.2L272.7,82.2z
		 M149.1,59.4c0,3.6,0.1,6.6-1.7,9.9c-1.5,2.6-3.8,4.2-6.4,4.2c-3.6,0-5.7-2.7-5.7-6.7c0-7.9,7.1-9.4,13.8-9.4V59.4z M158.4,82.1
		c-0.6,0.5-1.5,0.6-2.2,0.2c-3.1-2.5-3.7-3.8-5.4-6.2c-5.1,5.2-8.7,6.7-15.3,6.7c-7.8,0-13.9-4.8-13.9-14.4c0-7.6,4.1-12.6,9.9-15.2
		c5.1-2.2,12.1-2.6,17.5-3.3v-1.2c0-2.2,0.2-4.8-1.2-6.7c-1.2-1.7-3.3-2.4-5.2-2.4c-3.6,0-6.7,1.8-7.5,5.6c-0.2,0.8-0.7,1.7-1.6,1.7
		l-8.9-0.9c-0.7-0.2-1.6-0.7-1.4-1.9c2.1-10.9,11.9-14.2,20.7-14.2c4.5,0,10.4,1.2,14,4.6c4.5,4.2,4.1,9.9,4.1,16v14.4
		c0,4.3,1.8,6.2,3.5,8.6c0.6,0.8,0.7,1.9,0,2.4C163.7,77.5,160.3,80.5,158.4,82.1L158.4,82.1z M27.5,59.4c0,3.6,0.1,6.6-1.7,9.9
		c-1.5,2.6-3.8,4.2-6.4,4.2c-3.6,0-5.7-2.7-5.7-6.7c0-7.9,7.1-9.4,13.8-9.4V59.4z M36.7,82.1c-0.6,0.5-1.5,0.6-2.2,0.2
		c-3.1-2.5-3.7-3.8-5.4-6.2c-5.1,5.2-8.7,6.7-15.3,6.7C6.1,82.8,0,77.9,0,68.4c0-7.6,4.1-12.6,9.9-15.2c5.1-2.2,12.1-2.6,17.5-3.3
		v-1.2c0-2.2,0.2-4.8-1.2-6.7c-1.2-1.7-3.3-2.4-5.2-2.4c-3.6,0-6.7,1.8-7.5,5.6c-0.2,0.8-0.7,1.7-1.6,1.7l-8.9-0.9
		c-0.7-0.2-1.6-0.7-1.4-1.9c2.1-10.9,11.9-14.2,20.7-14.2c4.5,0,10.4,1.2,14,4.6c4.5,4.2,4.1,9.9,4.1,16v14.4c0,4.3,1.8,6.2,3.5,8.6
		c0.6,0.8,0.7,1.9,0,2.4C42,77.5,38.6,80.5,36.7,82.1L36.7,82.1z"/>
</g>
</svg>
