<?xml version="1.0" encoding="utf-8"?>
<!-- Generator: Adobe Illustrator 26.0.2, SVG Export Plug-In . SVG Version: 6.00 Build 0)  -->
<svg version="1.1" id="Layer_1" xmlns="http://www.w3.org/2000/svg" xmlns:xlink="http://www.w3.org/1999/xlink" x="0px" y="0px"
	 viewBox="0 0 300 150" style="enable-background:new 0 0 300 150;" xml:space="preserve">
<style type="text/css">
	.st0{fill:#FFFFFF;}
</style>
<path d="M300,89.8c0-1.9-1.5-3.3-3.4-3.3c-1.9,0-3.4,1.5-3.4,3.3c0,1.9,1.5,3.4,3.4,3.4C298.5,93.2,300,91.7,300,89.8L300,89.8z"/>
<path class="st0" d="M299.6,89.8c0,1.7-1.3,3-3,3c-1.6,0.1-3-1.2-3.1-2.9s1.2-3,2.9-3.1c0.1,0,0.1,0,0.2,0
	C298.3,86.8,299.6,88.2,299.6,89.8z"/>
<path d="M295.4,91.5h0.5V90h1.2c0.7,0,0.6,0.7,0.6,1.1l0.1,0.5h0.6c-0.2-0.3-0.1-0.4-0.2-0.9c-0.1-0.6-0.1-0.7-0.5-0.9
	c0.4-0.3,0.5-0.5,0.5-0.9c-0.1-0.8-0.6-0.9-1.2-0.9h-1.7L295.4,91.5L295.4,91.5z M220,86.1h36.8c54.6,0,54.6,35.9,0,35.9H220V86.1
	L220,86.1z M132.7,122.4c15.6,0,28.4-8.4,28.4-18.6c0-10.2-12.8-18.6-28.4-18.6c-15.7,0-28.4,8.3-28.4,18.6
	C104.3,114,117,122.4,132.7,122.4z M19,122H0V86.1h17.4c0,0,14.4-0.4,14.4,9.1c0,0,0.6,6.5-5.1,8.5c0,0,7.1,1.9,7.1,8.6
	C33.7,118.9,27.2,122,19,122L19,122z M296.4,59.9l2,1.2c0,0-2.6,3.7-6.7,7.7l7.8,10.4H296l-6.3-8.5c-0.7,0.6-1.4,1.2-2.2,1.8
	c-6.4,5-11.4,7.7-16,7.7c-4.7,0-13.1-3.8-13.1-12.5s5.8-12.7,11.4-16.5c1.4-0.9,2.6-1.7,3.7-2.4c0,0-5.2-5.9-5.2-11.2
	c0-5.3,4.6-9.5,9.7-9.5c5.2,0,8.9,4.8,8.9,9.7c0,4.6-4.5,8.3-9.6,11.9c2.5,3.3,7.8,10.4,12.6,16.7C292.2,64.4,294.3,62.2,296.4,59.9
	L296.4,59.9z M143.4,79.2l20.7-51.5l20.8,51.5h-3.2L175,62.6h-21.7l-6.6,16.6H143.4z M61.7,29.3H73c31.9,0,32.6,49.8-0.7,49.8H61.7
	V29.3z M129.7,79.2h-12.5V29.3h11.3c0,0,12.2,0,12.7,12.1c0,0,0.7,7.9-5.5,11.3c0,0,9.9,2,9.9,12.5
	C145.6,75.8,137.2,79.2,129.7,79.2L129.7,79.2z M13,79.2H0.4V29.3h11.4c0,0,12.2,0,12.7,12.1c0,0,0.7,7.9-5.5,11.3
	c0,0,9.9,2,9.9,12.5C28.9,75.8,20.4,79.2,13,79.2L13,79.2z"/>
<path class="st0" d="M297.1,88.3c0.3,0,0.7,0.1,0.7,0.7c-0.1,0.5-0.4,0.6-0.7,0.6h-1.2v-1.3H297.1z M249,111.1h3.9
	c20.9,0,20.9-13.9,0-13.9H249V111.1z"/>
<path d="M161.7,86.1h19.3l17.1,19.1c0.9,1,1.9,0.7,1.3-0.8c-0.6-1.6-1.1-4.8-1.1-4.8V86.1h19V122h-19.1L181,103.7
	c-0.9-1-1.9-0.8-1.3,0.8c0.6,1.5,0.9,4.8,0.9,4.8V122h-18.9L161.7,86.1L161.7,86.1z"/>
<path class="st0" d="M132.7,96.7c5.3,0,9.7,3.2,9.7,7.1c0,3.9-4.3,7.1-9.7,7.1c-5.3,0-9.7-3.2-9.7-7.1
	C123,99.9,127.4,96.7,132.7,96.7z"/>
<path d="M36,86.1h47.4L89,96.2l5.3-10.2h19.7l-16.7,20.6V122H80.4v-15.8L64.7,87.5v8.4H51.6v3.5h12.1v9.2H51.6v3.7h13.8v9.8H36V86.1
	z"/>
<path class="st0" d="M13.1,100.1h3.4c3.6,0,3.6-5.4,0-5.4h-3.4C13.1,94.7,13.1,100.1,13.1,100.1z M13.1,107.6H17
	c5.1,0,5.1,5.9,0,5.9h-3.9V107.6z M287.9,68.3l-12.7-17.1c-4.6,3.2-5.9,4-8.2,5.7c-2.4,1.9-5.8,4.7-5.8,10c0,5.3,4.2,10.1,9.7,10.1
	C275,77,280.7,74.6,287.9,68.3L287.9,68.3z M275.6,47.5c2.3-1.5,4-2.6,5.4-4.1c2.3-2.5,2.7-4,2.7-5.6c0-1.5-1-6.5-6.1-6.5
	c-5.2,0-6.3,4.6-6.3,6.9C271.3,40.3,272.6,43.3,275.6,47.5z"/>
<path d="M209.8,50.3h30.4v-21h2.9v49.8h-2.9V53.4h-30.4v25.7h-2.9V29.3h2.9L209.8,50.3z M175.1,29.3h28.7v2.8h-12.9v47H188v-47
	h-12.9V29.3z"/>
<path class="st0" d="M173.8,59.7l-9.7-24.1l-9.7,24.1H173.8z M65,32.4h7.5c28.5,0,28.1,43.5,0,43.5H65V32.4z"/>
<path d="M32.8,29.3h23.7v3.1H35.8v18.1h20.1v2.9H35.8v22.6h20.7v3.1H32.8V29.3z"/>
<path class="st0" d="M120,32.4h8.4c13.2,0,13.2,19.6,0,19.6H120V32.4z M3.2,32.4h8.4c13.2,0,13.2,19.6,0,19.6H3.2V32.4z M120,55.2
	h11.1c15.6,0,15.2,20.9-0.4,20.9H120L120,55.2L120,55.2z M3.3,55.2h11.1c15.6,0,15.2,20.9-0.4,20.9H3.3V55.2z"/>
</svg>
