<?xml version="1.0" encoding="utf-8"?>
<!-- Generator: Adobe Illustrator 26.0.2, SVG Export Plug-In . SVG Version: 6.00 Build 0)  -->
<svg version="1.1" id="Layer_1" xmlns="http://www.w3.org/2000/svg" xmlns:xlink="http://www.w3.org/1999/xlink" x="0px" y="0px"
	 viewBox="0 0 300 150" style="enable-background:new 0 0 300 150;" xml:space="preserve">
<style type="text/css">
	.st0{fill:#4CB9A3;}
	.st1{fill:#056C5D;}
</style>
<path class="st0" d="M252.3,71.8l-0.2,2.3c-1.1-0.4-2.1-0.6-3-0.6c-1,0-1.8,0.2-2.6,0.8c-0.7,0.5-1.3,1.2-1.6,2.1
	c-0.4,0.9-0.6,1.8-0.6,2.7s0.2,1.8,0.5,2.7c0.4,0.8,0.9,1.5,1.6,2.1s1.7,0.8,2.8,0.8s2.1-0.3,2.9-0.8l0.2,2.5
	c-0.9,0.4-2.1,0.6-3.5,0.6c-1.1,0-2.1-0.2-3.1-0.6s-1.8-0.9-2.4-1.7c-0.7-0.7-1.2-1.5-1.6-2.5c-0.4-0.9-0.5-1.9-0.5-3
	c0-1.5,0.3-2.8,0.9-4c0.6-1.2,1.5-2.1,2.7-2.8c1.2-0.6,2.5-1,3.9-1c0.5,0,1.2,0.1,1.8,0.2C251.3,71.5,251.9,71.7,252.3,71.8z"/>
<path class="st0" d="M254.5,79c0-1.5,0.3-2.8,0.9-4c0.6-1.2,1.5-2.1,2.7-2.8c1.2-0.6,2.5-1,3.9-1s2.8,0.4,3.9,1
	c1.2,0.6,2.1,1.6,2.7,2.8c0.6,1.2,0.9,2.5,0.9,4c0,1.1-0.2,2.1-0.5,3c-0.4,0.9-0.9,1.8-1.6,2.5c-0.6,0.7-1.5,1.3-2.4,1.7
	c-0.9,0.4-1.9,0.6-3.1,0.6s-2.1-0.2-3.1-0.6s-1.8-1-2.4-1.7c-0.7-0.7-1.2-1.5-1.6-2.5C254.7,81.1,254.5,80.1,254.5,79z M257.4,79
	c0,0.9,0.2,1.8,0.5,2.7c0.4,0.9,0.9,1.5,1.6,2.1c0.7,0.5,1.6,0.8,2.6,0.8s1.9-0.3,2.6-0.8c0.7-0.5,1.2-1.2,1.6-2.1
	c0.4-0.9,0.5-1.8,0.5-2.7s-0.2-1.9-0.6-2.7c-0.4-0.9-0.9-1.5-1.6-2.1c-0.7-0.5-1.5-0.8-2.5-0.8c-0.7,0-1.4,0.2-1.9,0.5
	c-0.6,0.3-1.1,0.7-1.5,1.2c-0.4,0.5-0.7,1.1-0.9,1.8C257.6,77.6,257.4,78.3,257.4,79z"/>
<path class="st0" d="M273.4,86.5v-15h2.6v2.2h0.1c0.5-0.9,1.2-1.5,1.9-1.9c0.8-0.4,1.7-0.6,2.8-0.6c0.9,0,1.8,0.2,2.5,0.7
	s1.4,1.2,1.7,2.2c0.3-0.6,0.7-1.2,1.3-1.6c0.5-0.4,1.1-0.8,1.7-0.9c0.6-0.2,1.2-0.3,1.6-0.3c1.8,0,3.1,0.5,3.9,1.5
	c0.8,1,1.2,2.4,1.2,4.2v9.6h-2.8v-8.9c0-1.2-0.2-2.1-0.6-2.9c-0.4-0.8-1.1-1.2-2.1-1.2c-1.3,0-2.3,0.5-2.9,1.6c-0.6,1.1-1,2.4-1,3.9
	v7.5h-2.8v-8.9c0-1.2-0.2-2.1-0.6-2.9c-0.4-0.8-1.1-1.2-2.1-1.2c-1.3,0-2.3,0.5-2.9,1.6c-0.6,1.1-1,2.4-1,3.9v7.5H273.4z"/>
<path class="st1" d="M0.7,86.9V62.3h4.2v3.6h0.1c0.9-1.4,1.9-2.5,3.2-3.1s2.8-1,4.6-1c1.5,0,2.9,0.4,4.2,1.2c1.3,0.8,2.2,2,2.8,3.5
	c0.5-1.1,1.2-1.9,2.1-2.7c0.9-0.7,1.8-1.2,2.8-1.6s1.9-0.5,2.7-0.5c2.9,0,5.1,0.8,6.5,2.5c1.4,1.7,2.1,4,2.1,6.8v15.7h-4.5V72.3
	c0-1.9-0.3-3.5-0.9-4.8c-0.6-1.3-1.8-2-3.4-2c-2.2,0-3.8,0.9-4.8,2.6c-1.1,1.8-1.6,3.9-1.6,6.5v12.4h-4.5V72.3
	c0-1.9-0.3-3.5-0.9-4.8c-0.6-1.3-1.8-2-3.4-2c-2.2,0-3.8,0.9-4.8,2.6c-1.1,1.8-1.6,3.9-1.6,6.5v12.4L0.7,86.9L0.7,86.9z"/>
<path class="st1" d="M41.4,97.2l0.3-3.7c0.8,0.2,1.5,0.4,2.1,0.4c1.2,0,2.2-0.4,3-1.3c0.8-0.8,1.4-1.8,1.8-2.8c0.4-1,0.6-1.7,0.6-2
	c0-0.1-0.3-1-0.9-2.6l-8.2-23H45l6.6,20.3h0.1l6.7-20.3H63l-9.1,25.1c-0.8,2.2-1.5,3.9-2.1,5.2c-0.6,1.4-1.6,2.5-2.8,3.5
	c-1.2,0.9-2.7,1.4-4.5,1.4C43.7,97.5,42.7,97.5,41.4,97.2z"/>
<path class="st0" d="M69,86.9V62.2h4.2V66h0.1c0.6-1.3,1.5-2.4,2.7-3.2c1.2-0.8,2.4-1.2,3.7-1.2c0.9,0,1.9,0.1,3,0.3V66
	c-0.7-0.3-1.5-0.4-2.5-0.4c-1.4,0-2.5,0.4-3.5,1.2s-1.8,2-2.4,3.5c-0.5,1.5-0.8,3.3-0.8,5.4v11.2L69,86.9L69,86.9z"/>
<path class="st0" d="M105.8,81.3v4.5c-0.4,0.2-0.9,0.3-1.4,0.5c-0.5,0.2-1.1,0.4-1.7,0.5c-0.6,0.2-1.3,0.3-2.1,0.4
	c-0.8,0.1-1.6,0.2-2.6,0.2c-2.8,0-5.2-0.5-7.1-1.6c-1.9-1.1-3.4-2.6-4.2-4.6c-0.9-2-1.4-4.4-1.4-7.1c0-2.4,0.5-4.5,1.4-6.5
	c0.9-1.9,2.3-3.4,4.1-4.4c1.8-1.1,3.8-1.6,6.1-1.6c2.6,0,4.8,0.6,6.4,1.8c1.6,1.2,2.8,2.8,3.5,4.9c0.7,2.1,1.1,4.5,1.1,7.3H90.1
	c0,1.6,0.4,2.9,1.1,4.2c0.8,1.2,1.8,2.2,3,2.9c1.2,0.7,2.6,1.1,4,1.1c1.4,0,2.8-0.3,4.3-0.8C104.1,82.4,105.2,81.8,105.8,81.3z
	 M90.1,72.1h12.8c0-1.2-0.2-2.4-0.7-3.5s-1.2-1.9-2.1-2.5c-0.9-0.6-2-0.9-3.3-0.9c-1.4,0-2.6,0.4-3.5,1c-0.9,0.6-1.6,1.5-2.2,2.5
	C90.6,69.9,90.3,71,90.1,72.1z"/>
<path class="st0" d="M135.6,62.2v23.6c0,1.9-0.2,3.6-0.8,5c-0.5,1.5-1.2,2.6-2.3,3.7c-1.1,1-2.4,1.8-3.9,2.3
	c-1.6,0.5-3.5,0.8-5.7,0.8c-2.6,0-5.5-0.6-8.8-1.7l0.5-4.2c1.8,0.8,3.4,1.4,4.6,1.7c1.2,0.4,2.6,0.5,4.3,0.5c2.4,0,4.2-0.8,5.6-2.2
	c1.4-1.5,2.1-3.6,2.1-6.2V83H131c-0.9,1.2-2.1,2.2-3.6,2.8c-1.5,0.6-3,1-4.6,1c-2.2,0-4.2-0.5-5.8-1.6c-1.6-1.1-2.8-2.6-3.6-4.4
	c-0.8-1.8-1.2-3.9-1.2-6c0-2.2,0.4-4.3,1.2-6.3c0.8-2,2.1-3.6,3.8-4.9c1.6-1.2,3.6-1.9,6-1.9c4,0,6.7,1.4,8.1,4.2h0.1v-3.7
	L135.6,62.2L135.6,62.2z M123.8,83.2c1.4,0,2.6-0.4,3.7-1.1c1.1-0.8,1.9-1.8,2.5-3.1c0.6-1.3,0.9-2.6,0.9-4.2c0-1.8-0.3-3.4-0.8-4.8
	c-0.5-1.5-1.4-2.6-2.4-3.5c-1.1-0.8-2.4-1.3-3.9-1.3c-2.1,0-3.8,0.9-5,2.8c-1.2,1.9-1.8,4-1.8,6.4c0,1.6,0.3,3,0.8,4.4
	c0.5,1.3,1.4,2.4,2.4,3.2C121.2,82.8,122.5,83.2,123.8,83.2z"/>
<path class="st0" d="M143.5,86.9V62.2h4.5v24.7H143.5z"/>
<path class="st0" d="M155.9,86l0.2-4.1c0.8,0.5,1.8,0.9,2.9,1.3c1.1,0.3,2,0.5,2.8,0.5c1.2,0,2.3-0.3,3.2-0.8
	c0.9-0.6,1.4-1.5,1.4-2.6c0-1-0.4-1.8-1.2-2.3c-0.8-0.5-2.1-1.3-3.9-2.2c-1.8-0.9-3.2-1.8-4.2-2.8c-0.9-0.9-1.4-2.2-1.4-3.7
	c0-2.5,0.8-4.4,2.4-5.7c1.6-1.3,3.7-1.9,6.2-1.9c1.6,0,3.5,0.3,5.7,0.9l-0.4,3.9c-0.5-0.3-1.2-0.6-2.3-0.9c-1.1-0.3-1.9-0.4-2.5-0.4
	c-1.2,0-2.3,0.2-3.1,0.8s-1.2,1.2-1.2,2.2c0,1.1,0.4,1.9,1.1,2.4c0.8,0.5,2.1,1.2,3.9,2.1c1.9,0.9,3.2,1.8,4.2,2.8s1.4,2.4,1.4,4.1
	c0,1.6-0.4,3.1-1.2,4.2c-0.8,1.2-1.8,2-3.2,2.6c-1.3,0.6-2.7,0.9-4.2,0.9C159.8,87.4,157.6,87,155.9,86z"/>
<path class="st0" d="M191.1,62.2v3.6h-6.5v13.5c0,1.4,0.4,2.4,1.1,3.2c0.7,0.8,1.6,1.2,2.7,1.2c1.2,0,2.2-0.3,3.1-0.9v3.9
	c-1.6,0.5-2.9,0.6-3.9,0.6c-2.4,0-4.3-0.6-5.6-1.8c-1.4-1.2-2-2.9-2-5.4V65.8h-5.5v-3.6h5.5v-5.7l4.5-1.5v7.1L191.1,62.2L191.1,62.2
	z"/>
<path class="st0" d="M196.2,86.9V62.2h4.2V66h0.1c0.6-1.3,1.5-2.4,2.7-3.2c1.2-0.8,2.4-1.2,3.7-1.2c0.9,0,1.9,0.1,3,0.3V66
	c-0.7-0.3-1.5-0.4-2.5-0.4c-1.4,0-2.5,0.4-3.5,1.2s-1.8,2-2.4,3.5c-0.5,1.5-0.8,3.3-0.8,5.4v11.2L196.2,86.9L196.2,86.9z"/>
<path class="st0" d="M214.6,97.2l0.3-3.7c0.8,0.2,1.5,0.4,2.1,0.4c1.2,0,2.2-0.4,3-1.3c0.8-0.8,1.4-1.8,1.8-2.8c0.4-1,0.6-1.7,0.6-2
	c0-0.1-0.3-1-0.9-2.6l-8.4-23h5l6.6,20.4h0.1l6.8-20.4h4.6l-9.1,25.2c-0.8,2.2-1.5,3.9-2.1,5.3c-0.6,1.4-1.6,2.5-2.8,3.5
	c-1.2,0.9-2.7,1.5-4.5,1.5C216.9,97.6,215.9,97.5,214.6,97.2z"/>
<circle class="st0" cx="146" cy="57.3" r="2.6"/>
<circle class="st0" cx="235.7" cy="84.7" r="1.7"/>
<path class="st0" d="M300,67.7c0,0.5-0.1,0.9-0.4,1.3c-0.2,0.4-0.5,0.7-0.9,0.9c-0.4,0.2-0.8,0.4-1.3,0.4s-0.9-0.1-1.3-0.4
	c-0.4-0.2-0.7-0.5-0.9-0.9c-0.2-0.4-0.4-0.8-0.4-1.3s0.1-0.9,0.4-1.3c0.2-0.4,0.5-0.7,0.9-0.9c0.4-0.2,0.8-0.4,1.3-0.4
	s0.9,0.1,1.3,0.4c0.4,0.2,0.7,0.5,0.9,0.9C299.9,66.8,300,67.3,300,67.7z M299.5,67.7c0-0.6-0.2-1.1-0.6-1.5s-0.9-0.6-1.5-0.6
	s-1.1,0.2-1.5,0.6s-0.6,0.9-0.6,1.5s0.2,1.1,0.6,1.5c0.4,0.5,0.9,0.6,1.5,0.6s1.1-0.2,1.5-0.6S299.5,68.3,299.5,67.7z M296.2,66.3
	h1.2c0.4,0,0.6,0.1,0.8,0.2c0.2,0.2,0.2,0.4,0.2,0.6c0,0.2-0.1,0.4-0.2,0.5c-0.1,0.1-0.3,0.2-0.6,0.3c0.1,0.1,0.2,0.1,0.2,0.1
	c0.1,0.1,0.1,0.2,0.2,0.3c0,0,0.2,0.3,0.5,0.8h-0.8c-0.3-0.5-0.5-0.9-0.5-0.9s-0.2-0.2-0.3-0.2h-0.1v1.1h-0.7V66.3z M296.9,67.5h0.3
	c0.2,0,0.4-0.1,0.4-0.1s0.1-0.2,0.1-0.2s-0.1-0.2-0.1-0.2s-0.2-0.1-0.4-0.1h-0.4L296.9,67.5L296.9,67.5z"/>
</svg>
