<?xml version="1.0" encoding="utf-8"?>
<!-- Generator: Adobe Illustrator 26.0.3, SVG Export Plug-In . SVG Version: 6.00 Build 0)  -->
<svg version="1.1" id="Layer_1" xmlns="http://www.w3.org/2000/svg" xmlns:xlink="http://www.w3.org/1999/xlink" x="0px" y="0px"
	 viewBox="0 0 500 500" style="enable-background:new 0 0 500 500;" xml:space="preserve">
<path d="M250,0C111.9,0,0,111.9,0,250s111.9,250,250,250s250-111.9,250-250S388.1,0,250,0z M12.4,250c0-52.9,17.3-101.7,46.5-141.2
	c1,19.2,18.8,25.7,53.3,19.5c6.5-1.2,13.3-2.7,20.5-4.5s14.1-3.6,20.8-5.5l0.9-0.2c12.1-3.5,23.4-6.3,33.9-8.6
	c10.4-2.2,19-2.8,25.7-1.8c-1.8,18.6-1.3,37.6,1.6,57.1c2.4,16.2,5.3,33,8.6,50.3c-0.1,0.2-0.3,0.3-0.5,0.5c-4.7,4.2-7.1,9-7.4,14.3
	c-0.3,5.4,2.4,10.3,8,14.8c2,0.7,4,1.2,5.8,1.4c2.4,13.5,4.5,26.6,6.3,39.4c2.7,19.2,3.3,37,1.9,53.3c-1.4,16.3-6.4,30.5-15.1,42.5
	c-8.7,12.1-22.3,21.4-40.8,27.9c-25.7,9.2-62.1,11.5-78.1,0.4c-19.6-13.5-24.6-23.8-30.8-36.1c-3-5.9-4.7-22.8-3.8-33.7
	c0.6-7.2,1.7-15.9,3.4-22.3c7.1-26.4,24.9-48.4,45.4-52c23.5-4.1,39.9,4.8,45.9,7.9c10.5,5.4,37.1,33.2,35.7,66.8
	c-0.7,16-27.5,30.4-37.1,31.8c-9.2,1.3-36.6,2.7-48.6-15.9c-3.3-5-6.9-22.2,10.5-40.2c9.1-9.4,28.9-10.5,18.7-20.4
	c-9.6-9.3-45,18.9-48.2,38.2c-4.5,27.3,8.5,42.2,27,49c57.2,21,100.8-22.3,94-59.1c-3.8-20.5-14.3-36-17.3-40.9
	c-5.5-8.9-15.6-19-26.2-25.8c-18.9-12.1-40.8-11.5-42.3-11.4c-14.9,1-21,4.2-29.9,8.3C89.5,259,82.2,266.9,79.3,270
	c-5.4,5.8-6.9,8.5-9.8,12.2c-2.4,3.1-7,10.5-11.5,21.7c-9.9,24.5-8.7,47-7.7,56.4c0.5,5.5,1.4,11.7,3.7,19.7c0.8,2.8,1.8,5.7,3,8.5
	C28.9,349.5,12.4,301.7,12.4,250z M250,487.6c-57.7,0-110.5-20.6-151.7-54.7c6.6,2.6,13.6,4.3,21.9,6c15.8,3.4,32,3.8,48.5,1.1
	s31.9-8.2,46.3-16.5s26-19.3,34.8-33c9.3-14.4,14.8-30.3,16.4-47.6c1.6-17.4,1.1-35.9-1.7-55.6c-2.5-17.3-5.4-34.7-8.8-52.5
	c4-1.7,7.9-2.3,11.7-1.9c6.1,0.7,12.2,3.4,18.1,8.2c6,4.5,10.2,10.7,12.7,18.6s4,16.7,4.4,26.4c0.4,9.7,0.6,19.9,0.6,30.6
	c0,12.1,0.5,24.2,1.5,36.1c1,12,3.6,22.8,7.8,32.5s11.4,17.4,21.5,23c11.8,6.2,24.7,8.5,38.8,7c14-1.5,29.8-5,47.2-10.3
	c4.7-1.6,9.6-3.4,14.8-5.6C391.2,453.2,324.6,487.6,250,487.6z M437.8,373.6c-4.4-0.6-11.9,1.5-22.6,6.3c-8.8,3.9-18.1,7.2-28.1,9.7
	s-19.1,3.2-27.2,2.1c-10.7-1.7-18.3-6.2-22.8-13.5s-7.1-16.4-7.8-27.4c-0.8-10.9-1.1-22.7-1.1-35.4c0.3-14.1-0.2-28.2-1.5-42.4
	s-5.6-26.5-12.9-36.9c-3.3-4.5-6.9-7.9-10.5-10.3c-3.7-2.3-7.2-4.5-10.6-6.5c-2.8-1.4-5.5-2.9-8-4.4s-5.2-3.7-8-6.5
	c9-9.8,19.4-19.6,31.4-29.3s24.6-18.8,38-27.2c13.3-8.5,26.3-15.4,39-20.7c1.4-0.8,5.2-2.2,11.4-4.2c17.5-5,28.2-9.8,32.3-14.3
	c4.1-4.5,0.3-9.5-11.2-14.8c-24.4,5.1-47.2,13.3-68.3,24.7c-21.1,11.3-40.5,24.5-58.4,39.4c-14.7,12.2-28.5,24.7-41.5,37.5
	c-2.4-14.1-4.4-27.8-6.1-41.1c-2.8-21.8-2-42.4,2.6-61.9c2.5-1.8,6.4-3.3,11.8-4.4s11.4-2.1,18-3c0.6-0.1,1.1-0.2,1.4-0.3
	c0.7-0.1,1.6-0.3,2.8-0.6c7.1-1.4,14.2-2.9,21.2-4.7s12.5-4.2,16.3-7.2c3.9-2.9,4.7-7.1,2.5-12.4c-1.5-3.6-4.6-5.6-9.4-6.1
	s-10.2-0.1-16.2,1.1c-6,1.2-11.8,2.6-17.2,4.2c-0.6,0.1-1.1,0.2-1.4,0.3c-1.3,0.3-6.9,1.7-17,4.2s-23.9,5.8-41.4,9.8
	c-23.6,5.8-46.9,11.2-69.9,16.4c-23,5.1-42.5,8.9-58.4,11.3c-1.2-0.7-2.7-3.4-4.8-8.1c-1.1-3.3-3-6.5-5.7-9.8
	c-0.2-0.3-0.5-0.5-0.8-0.8c43.3-45.6,104.5-74,172.3-74c131.2,0,237.6,106.4,237.6,237.6c0,48-14.2,92.6-38.7,130
	C445.2,376.7,441.4,374.7,437.8,373.6z"/>
</svg>
